<svg width="320" height="124" viewBox="0 0 320 124" fill="none" xmlns="http://www.w3.org/2000/svg">
<g clip-path="url(#clip0_412_5853)">
<path d="M47.4803 57.8765L32.4781 50.293C32.0797 50.0917 31.4801 50.1594 31.1387 50.4443L18.2803 61.1753C17.9389 61.4602 17.985 61.8544 18.3834 62.0557L33.3856 69.6392C33.784 69.8406 34.3836 69.7728 34.725 69.4879L47.5834 58.757C47.9248 58.4721 47.8786 58.0779 47.4803 57.8765Z" fill="url(#paint0_linear_412_5853)"/>
<path d="M46.7316 57.8765L61.7339 50.293C62.1322 50.0917 62.7318 50.1594 63.0732 50.4443L75.9316 61.1753C76.273 61.4602 76.2269 61.8544 75.8285 62.0557L60.8263 69.6392C60.428 69.8406 59.8283 69.7728 59.4869 69.4879L46.6285 58.757C46.2871 58.4721 46.3333 58.0779 46.7316 57.8765Z" fill="url(#paint1_linear_412_5853)"/>
<path d="M60.9733 44.9632L77.3718 36.6739C77.8072 36.4538 78.4627 36.5278 78.8358 36.8393L92.8909 48.569C93.2641 48.8804 93.2137 49.3112 92.7783 49.5313L76.3798 57.8206C75.9444 58.0407 75.2889 57.9667 74.9158 57.6552L60.8606 45.9255C60.4875 45.6141 60.5379 45.1833 60.9733 44.9632Z" fill="url(#paint2_linear_412_5853)"/>
<path d="M33.5618 44.9632L17.1633 36.6739C16.728 36.4538 16.0725 36.5278 15.6993 36.8393L1.64419 48.569C1.27103 48.8804 1.32148 49.3112 1.75687 49.5313L18.1554 57.8206C18.5907 58.0407 19.2462 57.9667 19.6194 57.6552L33.6745 45.9255C34.0477 45.6141 33.9972 45.1833 33.5618 44.9632Z" fill="url(#paint3_linear_412_5853)"/>
<path d="M48.3078 35.5589L63.31 27.9754C63.7083 27.7741 64.308 27.8418 64.6494 28.1267L77.5078 38.8577C77.8492 39.1426 77.803 39.5368 77.4047 39.7381L62.4024 47.3216C62.0041 47.5229 61.4045 47.4552 61.0631 47.1703L48.2047 36.4393C47.8633 36.1544 47.9094 35.7603 48.3078 35.5589Z" fill="url(#paint4_linear_412_5853)"/>
<path d="M46.2274 35.5589L31.2251 27.9754C30.8268 27.7741 30.2272 27.8418 29.8858 28.1267L17.0274 38.8577C16.686 39.1426 16.7321 39.5368 17.1304 39.7381L32.1327 47.3216C32.531 47.5229 33.1307 47.4552 33.4721 47.1703L46.3305 36.4393C46.6719 36.1544 46.6257 35.7603 46.2274 35.5589Z" fill="url(#paint5_linear_412_5853)"/>
<path d="M33.6791 74.9818C33.4694 74.7353 33.486 74.3718 33.7174 74.1448L46.6203 61.4692C46.8672 61.2267 47.2674 61.2267 47.5143 61.4692L60.3069 74.0363C60.537 74.2623 60.5548 74.6233 60.3482 74.8703L47.5518 90.1567C47.3002 90.4577 46.8322 90.4592 46.5783 90.1602L33.6791 74.9818Z" fill="url(#paint6_linear_412_5853)"/>
<g filter="url(#filter0_d_412_5853)">
<mask id="mask0_412_5853" style="mask-type:luminance" maskUnits="userSpaceOnUse" x="3" y="23" width="88" height="77">
<path d="M16.838 23.8982L27.8858 40.4928L42.1667 23.8982H16.8378H16.838ZM51.432 23.8982L65.5245 40.2716L76.2525 23.8979H51.432V23.8982ZM46.7993 24.0736L31.3132 42.0666H62.2853L46.7995 24.0736H46.7993ZM79.3201 25.7187L68.6033 42.0664H90.2533L79.3201 25.7187ZM13.8674 25.8748L3.30544 42.0664H24.6523L13.8674 25.8748ZM3.17383 45.9548L41.2697 93.4828L26.0578 45.9544H3.17401L3.17383 45.9548ZM29.6907 45.9548L46.7991 99.3999L63.9077 45.9548H29.6911H29.6907ZM67.5404 45.9548L52.329 93.4828L90.4249 45.9544H67.5409L67.5404 45.9548Z" fill="white"/>
</mask>
<g mask="url(#mask0_412_5853)">
<path d="M16.8381 23.898L17.1679 23.6862L17.0512 23.511H16.8381V23.898ZM27.8859 40.4927L27.556 40.7046L27.8454 41.1393L28.1869 40.7426L27.8859 40.4927ZM42.1668 23.898L42.4678 24.1479L43.0159 23.511H42.1668V23.898ZM51.4321 23.898L51.733 23.6481L51.7319 23.6468L51.7309 23.6454L51.4321 23.898ZM65.5245 40.2715L65.2237 40.5214L65.5678 40.9211L65.8559 40.481L65.5245 40.2715ZM76.2526 23.8978L76.584 24.1073L76.9749 23.5107H76.2526V23.8978ZM51.4321 23.8978V23.5107H50.5724L51.1333 24.1504L51.4321 23.8978ZM46.7994 24.0735V23.6864H46.6165L46.4984 23.8236L46.7994 24.0735ZM31.3133 42.0665L31.0123 41.8165L30.4641 42.4536H31.3133V42.0665ZM62.2854 42.0665V42.4536H63.1345L62.5862 41.8165L62.2854 42.0665ZM46.7996 24.0735L47.1005 23.8236L46.9825 23.6864H46.7996V24.0735ZM79.3202 25.7186V25.3315H79.1049L78.9888 25.509L79.3202 25.7186ZM68.6034 42.0663L68.272 41.8567L67.881 42.4534H68.6034V42.0663ZM90.2534 42.0663V42.4534H90.9834L90.5827 41.8538L90.2534 42.0663ZM79.3202 25.7186L79.6496 25.506L79.533 25.3315H79.3202V25.7186ZM3.30552 42.0663L2.97369 41.8575L2.58496 42.4534H3.30552V42.0663ZM24.6524 42.0663V42.4534H25.3812L24.9822 41.8543L24.6524 42.0663ZM3.1739 45.9547L2.81214 45.8012L2.71898 46.0129L2.86425 46.1942L3.1739 45.9547ZM41.2698 93.4826L40.9602 93.7221L41.6458 93.3666L41.2698 93.4826ZM26.0579 45.9543L26.4339 45.8382L26.3472 45.5672H26.0579V45.9543ZM3.17409 45.9543V45.5672H2.91506L2.81232 45.8008L3.17409 45.9543ZM29.6908 45.9547V45.5676H29.1538L29.3149 46.0708L29.6908 45.9547ZM46.7992 99.3998L46.4233 99.5158L46.7992 100.69L47.1751 99.5158L46.7992 99.3998ZM63.9077 45.9547L64.2834 46.0708L64.4448 45.5676H63.9077V45.9547ZM67.5404 45.9547L67.2406 45.7035L67.1887 45.7635L67.1647 45.8387L67.5404 45.9547ZM52.3291 93.4826L51.9534 93.3666L52.6391 93.7221L52.3291 93.4826ZM90.4249 45.9543L90.7344 46.1938L91.2369 45.5672H90.4249V45.9543ZM67.5409 45.9543V45.5672H67.3592L67.2411 45.7031L67.5409 45.9543ZM16.5082 24.1099L27.556 40.7046L28.2157 40.2809L17.1679 23.6862L16.5082 24.1099ZM28.1869 40.7426L42.4678 24.1479L41.8658 23.6482L27.5849 40.2429L28.1869 40.7426ZM42.1668 23.511H16.8379V24.2851H42.1668V23.511ZM16.8379 24.2851H16.8381V23.511H16.8379V24.2851ZM51.1312 24.1479L65.2237 40.5214L65.8254 40.0217L51.733 23.6481L51.1312 24.1479ZM65.8559 40.481L76.584 24.1073L75.9212 23.6884L65.1931 40.0621L65.8559 40.481ZM76.2526 23.5107H51.4321V24.2849H76.2526V23.5107ZM51.1333 24.1504L51.1338 24.1507L51.7309 23.6454L51.7304 23.6452L51.1333 24.1504ZM46.4984 23.8236L31.0123 41.8165L31.6143 42.3164L47.1004 24.3234L46.4984 23.8236ZM31.3133 42.4536H62.2854V41.6794H31.3133V42.4536ZM62.5862 41.8165L47.1005 23.8236L46.4986 24.3234L61.9845 42.3164L62.5862 41.8165ZM46.7996 23.6864H46.7994V24.4605H46.7996V23.6864ZM78.9888 25.509L68.272 41.8567L68.9348 42.2758L79.6516 25.9281L78.9888 25.509ZM68.6034 42.4534H90.2534V41.6791H68.6034V42.4534ZM90.5827 41.8538L79.6496 25.506L78.9908 25.9311L89.924 42.2788L90.5827 41.8538ZM13.5356 25.6658L2.97369 41.8575L3.63735 42.2751L14.1993 26.0834L13.5356 25.6658ZM3.30552 42.4534H24.6524V41.6791H3.30552V42.4534ZM24.9822 41.8543L14.1973 25.6627L13.5377 26.0865L24.3226 42.2782L24.9822 41.8543ZM2.86425 46.1942L40.9602 93.7221L41.5794 93.2431L3.48356 45.7153L2.86425 46.1942ZM41.6458 93.3666L26.4339 45.8382L25.682 46.0704L40.8938 93.5986L41.6458 93.3666ZM26.0579 45.5672H3.17409V46.3414H26.0579V45.5672ZM2.81232 45.8008L2.81214 45.8012L3.53568 46.1083L3.53586 46.1079L2.81232 45.8008ZM29.3149 46.0708L46.4233 99.5158L47.1751 99.2838L30.0667 45.8386L29.3149 46.0708ZM47.1751 99.5158L64.2834 46.0708L63.5315 45.8386L46.4233 99.2838L47.1751 99.5158ZM63.9077 45.5676H29.6912V46.3418H63.9077V45.5676ZM29.6912 45.5676H29.6908V46.3418H29.6912V45.5676ZM67.1647 45.8387L51.9534 93.3666L52.7053 93.5986L67.9166 46.0708L67.1647 45.8387ZM52.6391 93.7221L90.7344 46.1938L90.1154 45.7149L52.0196 93.2431L52.6391 93.7221ZM90.4249 45.5672H67.5409V46.3414H90.4249V45.5672ZM67.2411 45.7031L67.2406 45.7035L67.8403 46.2059L67.8408 46.2055L67.2411 45.7031Z" fill="#14CDED" fill-opacity="0.26"/>
</g>
</g>
<g filter="url(#filter1_d_412_5853)">
<path d="M68.0892 40.4432L46.2044 29.3807C45.6234 29.087 44.7486 29.1858 44.2506 29.6014L25.4933 45.2553C24.9953 45.6709 25.0626 46.2459 25.6436 46.5397L47.5284 57.6022C48.1094 57.8959 48.9842 57.7971 49.4822 57.3815L68.2395 41.7276C68.7375 41.312 68.6702 40.7369 68.0892 40.4432Z" fill="url(#paint7_linear_412_5853)"/>
</g>
</g>
<path d="M116.664 76.1489V49.1872H127.262C128.972 49.1872 130.407 49.5367 131.568 50.2357C132.729 50.9347 133.603 51.8397 134.189 52.9506C134.776 54.0491 135.069 55.2099 135.069 56.4332C135.069 57.9186 134.701 59.1918 133.965 60.2528C133.241 61.3137 132.261 62.0377 131.025 62.4247L130.988 61.5072C132.71 61.9316 134.033 62.7617 134.957 63.9974C135.881 65.2207 136.343 66.6499 136.343 68.2851C136.343 69.8703 136.024 71.2496 135.388 72.423C134.764 73.5963 133.846 74.5137 132.635 75.1753C131.437 75.8244 129.983 76.1489 128.273 76.1489H116.664ZM120.634 72.423H127.674C128.56 72.423 129.352 72.2545 130.051 71.9174C130.763 71.5804 131.318 71.0998 131.718 70.4757C132.13 69.8391 132.336 69.084 132.336 68.2102C132.336 67.3989 132.155 66.6686 131.793 66.0196C131.443 65.358 130.931 64.84 130.257 64.4655C129.596 64.0786 128.816 63.8851 127.917 63.8851H120.634V72.423ZM120.634 60.1966H127.206C127.929 60.1966 128.579 60.053 129.153 59.7659C129.739 59.4664 130.201 59.042 130.538 58.4928C130.888 57.9311 131.063 57.257 131.063 56.4706C131.063 55.4221 130.713 54.5608 130.014 53.8868C129.315 53.2128 128.379 52.8757 127.206 52.8757H120.634V60.1966ZM140.069 76.1489V55.9276H143.551V60.8332L143.064 60.1966C143.314 59.5475 143.638 58.9546 144.038 58.4179C144.437 57.8686 144.899 57.4193 145.423 57.0698C145.935 56.6953 146.503 56.4082 147.127 56.2085C147.764 55.9963 148.413 55.8715 149.074 55.834C149.736 55.7841 150.373 55.8153 150.984 55.9276V59.5974C150.323 59.4227 149.586 59.3728 148.775 59.4476C147.976 59.5225 147.24 59.7784 146.566 60.2153C145.929 60.6272 145.423 61.1265 145.049 61.7132C144.687 62.2998 144.425 62.9552 144.263 63.6791C144.1 64.3906 144.019 65.1458 144.019 65.9447V76.1489H140.069ZM154.924 52.6136V48.8128H158.838V52.6136H154.924ZM154.924 76.1489V55.9276H158.838V76.1489H154.924ZM164.835 76.1489V48.6255H168.748V76.1489H164.835ZM174.745 52.6136V48.8128H178.658V52.6136H174.745ZM174.745 76.1489V55.9276H178.658V76.1489H174.745ZM192.931 76.7106C190.859 76.7106 189.099 76.2488 187.651 75.3251C186.203 74.4014 185.092 73.1345 184.318 71.5242C183.557 69.914 183.17 68.0854 183.157 66.0383C183.17 63.9537 183.569 62.1126 184.355 60.5149C185.142 58.9047 186.265 57.644 187.726 56.7328C189.186 55.8215 190.94 55.3659 192.987 55.3659C195.196 55.3659 197.081 55.9152 198.641 57.0136C200.214 58.112 201.25 59.6162 201.75 61.5259L197.855 62.6494C197.468 61.5135 196.832 60.6335 195.945 60.0094C195.072 59.3728 194.067 59.0545 192.931 59.0545C191.645 59.0545 190.59 59.3603 189.767 59.9719C188.943 60.5711 188.331 61.3949 187.932 62.4434C187.532 63.4919 187.326 64.6902 187.314 66.0383C187.326 68.1228 187.801 69.8079 188.737 71.0936C189.685 72.3793 191.083 73.0221 192.931 73.0221C194.192 73.0221 195.209 72.735 195.983 72.1608C196.769 71.5742 197.368 70.7379 197.78 69.6519L201.75 70.5881C201.088 72.5603 199.996 74.0769 198.473 75.1379C196.95 76.1864 195.103 76.7106 192.931 76.7106ZM213.061 76.1489V49.1872H216.599L226.373 69.4647L236.09 49.1872H239.666V76.1302H235.959V57.6876L227.253 76.1489H225.474L216.749 57.6876V76.1489H213.061ZM253.881 76.7106C251.871 76.7106 250.105 76.2737 248.582 75.4C247.072 74.5137 245.892 73.2842 245.043 71.7115C244.207 70.1262 243.789 68.2913 243.789 66.2068C243.789 63.9974 244.201 62.0814 245.025 60.4587C245.861 58.836 247.022 57.5815 248.507 56.6953C249.993 55.8091 251.721 55.3659 253.694 55.3659C255.753 55.3659 257.507 55.8465 258.955 56.8076C260.403 57.7563 261.482 59.1106 262.194 60.8706C262.918 62.6306 263.205 64.7214 263.055 67.143H259.142V65.72C259.117 63.3733 258.668 61.6383 257.794 60.5149C256.933 59.3915 255.616 58.8298 253.843 58.8298C251.884 58.8298 250.411 59.4476 249.425 60.6834C248.438 61.9191 247.945 63.7041 247.945 66.0383C247.945 68.2601 248.438 69.9827 249.425 71.2059C250.411 72.4167 251.834 73.0221 253.694 73.0221C254.917 73.0221 255.972 72.7475 256.858 72.1983C257.757 71.6366 258.456 70.8377 258.955 69.8017L262.793 71.0187C262.007 72.8286 260.815 74.2329 259.217 75.2315C257.619 76.2176 255.84 76.7106 253.881 76.7106ZM246.672 67.143V64.0911H261.108V67.143H246.672ZM275.288 76.7106C273.404 76.7106 271.775 76.2425 270.402 75.3064C269.041 74.3702 267.986 73.097 267.237 71.4868C266.501 69.8641 266.133 68.0417 266.133 66.0196C266.133 63.985 266.507 62.1688 267.256 60.5711C268.005 58.9608 269.066 57.6939 270.439 56.7702C271.825 55.834 273.466 55.3659 275.363 55.3659C277.273 55.3659 278.877 55.834 280.175 56.7702C281.486 57.6939 282.472 58.9608 283.133 60.5711C283.807 62.1813 284.145 63.9974 284.145 66.0196C284.145 68.0417 283.807 69.8579 283.133 71.4681C282.459 73.0783 281.467 74.3577 280.156 75.3064C278.846 76.2425 277.223 76.7106 275.288 76.7106ZM275.831 73.1719C277.117 73.1719 278.166 72.8661 278.977 72.2545C279.788 71.6428 280.381 70.8003 280.756 69.7268C281.13 68.6533 281.317 67.4176 281.317 66.0196C281.317 64.6215 281.124 63.3858 280.737 62.3123C280.362 61.2389 279.776 60.4025 278.977 59.8034C278.19 59.2042 277.186 58.9047 275.962 58.9047C274.664 58.9047 273.597 59.223 272.761 59.8596C271.924 60.4962 271.3 61.3512 270.888 62.4247C270.489 63.4981 270.289 64.6964 270.289 66.0196C270.289 67.3552 270.489 68.5659 270.888 69.6519C271.3 70.7254 271.912 71.5804 272.723 72.217C273.547 72.8536 274.583 73.1719 275.831 73.1719ZM281.317 76.1489V61.6008H280.868V49.1872H284.8V76.1489H281.317ZM290.413 52.6136V48.8128H294.326V52.6136H290.413ZM290.413 76.1489V55.9276H294.326V76.1489H290.413ZM305.659 76.7106C304.162 76.7106 302.907 76.436 301.896 75.8868C300.885 75.3251 300.117 74.5886 299.593 73.6774C299.081 72.7537 298.825 71.7427 298.825 70.6442C298.825 69.6207 299.006 68.722 299.368 67.9481C299.73 67.1742 300.267 66.5189 300.979 65.9821C301.69 65.4329 302.564 64.9898 303.6 64.6528C304.499 64.3906 305.516 64.1597 306.652 63.96C307.788 63.7603 308.98 63.573 310.228 63.3983C311.489 63.2235 312.737 63.0488 313.973 62.874L312.55 63.6604C312.575 62.0752 312.238 60.9018 311.539 60.1404C310.852 59.3665 309.666 58.9796 307.981 58.9796C306.92 58.9796 305.947 59.2292 305.06 59.7285C304.174 60.2153 303.556 61.0267 303.207 62.1625L299.556 61.0391C300.055 59.3041 301.004 57.9248 302.402 56.9013C303.812 55.8777 305.684 55.3659 308.019 55.3659C309.829 55.3659 311.401 55.678 312.737 56.3021C314.085 56.9137 315.071 57.8874 315.695 59.223C316.02 59.8845 316.219 60.5835 316.294 61.32C316.369 62.0564 316.407 62.8491 316.407 63.6979V76.1489H312.943V71.5242L313.617 72.1234C312.781 73.6712 311.713 74.8258 310.415 75.5872C309.13 76.3362 307.544 76.7106 305.659 76.7106ZM306.352 73.5089C307.463 73.5089 308.418 73.3155 309.217 72.9285C310.016 72.5291 310.659 72.0235 311.145 71.4119C311.632 70.8003 311.951 70.1637 312.1 69.5021C312.313 68.903 312.431 68.2289 312.456 67.48C312.494 66.7311 312.512 66.1319 312.512 65.6825L313.785 66.1506C312.55 66.3379 311.426 66.5064 310.415 66.6562C309.404 66.8059 308.487 66.9557 307.663 67.1055C306.852 67.2428 306.128 67.4113 305.491 67.6111C304.954 67.7983 304.474 68.023 304.049 68.2851C303.637 68.5472 303.307 68.8655 303.057 69.24C302.82 69.6145 302.701 70.0701 302.701 70.6068C302.701 71.1311 302.832 71.6179 303.094 72.0672C303.356 72.5041 303.756 72.8536 304.293 73.1157C304.829 73.3779 305.516 73.5089 306.352 73.5089Z" fill="#52C8DC"/>
<defs>
<filter id="filter0_d_412_5853" x="0.58052" y="21.3046" width="92.4376" height="80.6886" filterUnits="userSpaceOnUse" color-interpolation-filters="sRGB">
<feFlood flood-opacity="0" result="BackgroundImageFix"/>
<feColorMatrix in="SourceAlpha" type="matrix" values="0 0 0 0 0 0 0 0 0 0 0 0 0 0 0 0 0 0 127 0" result="hardAlpha"/>
<feOffset/>
<feGaussianBlur stdDeviation="1.29665"/>
<feComposite in2="hardAlpha" operator="out"/>
<feColorMatrix type="matrix" values="0 0 0 0 0.652742 0 0 0 0 0.888693 0 0 0 0 0.931242 0 0 0 1 0"/>
<feBlend mode="normal" in2="BackgroundImageFix" result="effect1_dropShadow_412_5853"/>
<feBlend mode="normal" in="SourceGraphic" in2="effect1_dropShadow_412_5853" result="shape"/>
</filter>
<filter id="filter1_d_412_5853" x="24.7158" y="28.9895" width="44.3017" height="29.4482" filterUnits="userSpaceOnUse" color-interpolation-filters="sRGB">
<feFlood flood-opacity="0" result="BackgroundImageFix"/>
<feColorMatrix in="SourceAlpha" type="matrix" values="0 0 0 0 0 0 0 0 0 0 0 0 0 0 0 0 0 0 127 0" result="hardAlpha"/>
<feOffset dy="0.222154"/>
<feGaussianBlur stdDeviation="0.222154"/>
<feComposite in2="hardAlpha" operator="out"/>
<feColorMatrix type="matrix" values="0 0 0 0 0.0328573 0 0 0 0 0.642272 0 0 0 0 0.742794 0 0 0 1 0"/>
<feBlend mode="normal" in2="BackgroundImageFix" result="effect1_dropShadow_412_5853"/>
<feBlend mode="normal" in="SourceGraphic" in2="effect1_dropShadow_412_5853" result="shape"/>
</filter>
<linearGradient id="paint0_linear_412_5853" x1="39.9792" y1="54.0848" x2="32.3749" y2="69.1283" gradientUnits="userSpaceOnUse">
<stop stop-color="#C6F7FF"/>
<stop offset="1" stop-color="#47C3D8"/>
</linearGradient>
<linearGradient id="paint1_linear_412_5853" x1="54.2327" y1="54.0848" x2="61.837" y2="69.1283" gradientUnits="userSpaceOnUse">
<stop stop-color="#C6F7FF"/>
<stop offset="1" stop-color="#47C3D8"/>
</linearGradient>
<linearGradient id="paint2_linear_412_5853" x1="69.1725" y1="40.8185" x2="77.4846" y2="57.2621" gradientUnits="userSpaceOnUse">
<stop stop-color="#C6F7FF"/>
<stop offset="1" stop-color="#47C3D8"/>
</linearGradient>
<linearGradient id="paint3_linear_412_5853" x1="25.3626" y1="40.8185" x2="17.0505" y2="57.2621" gradientUnits="userSpaceOnUse">
<stop stop-color="#C6F7FF"/>
<stop offset="1" stop-color="#47C3D8"/>
</linearGradient>
<linearGradient id="paint4_linear_412_5853" x1="55.8089" y1="31.7672" x2="63.4132" y2="46.8107" gradientUnits="userSpaceOnUse">
<stop stop-color="#C6F7FF"/>
<stop offset="1" stop-color="#47C3D8"/>
</linearGradient>
<linearGradient id="paint5_linear_412_5853" x1="38.7263" y1="31.7672" x2="31.1219" y2="46.8107" gradientUnits="userSpaceOnUse">
<stop stop-color="#C6F7FF"/>
<stop offset="1" stop-color="#47C3D8"/>
</linearGradient>
<linearGradient id="paint6_linear_412_5853" x1="46.9541" y1="62.2679" x2="46.9541" y2="89.6527" gradientUnits="userSpaceOnUse">
<stop stop-color="#C6F7FF"/>
<stop offset="1" stop-color="#47C3D8"/>
</linearGradient>
<linearGradient id="paint7_linear_412_5853" x1="36.876" y1="37.8225" x2="56.8315" y2="38.0976" gradientUnits="userSpaceOnUse">
<stop stop-color="#92E3F1"/>
<stop offset="0.974024" stop-color="#52C8DC"/>
</linearGradient>
<clipPath id="clip0_412_5853">
<rect width="93.617" height="81.7021" fill="white" transform="translate(0 20.7979)"/>
</clipPath>
</defs>
</svg>
